<?xml version="1.0" standalone="no"?>
<!DOCTYPE svg PUBLIC "-//W3C//DTD SVG 20010904//EN"
 "http://www.w3.org/TR/2001/REC-SVG-20010904/DTD/svg10.dtd">
<svg version="1.0" xmlns="http://www.w3.org/2000/svg"
 width="512.000000pt" height="512.000000pt" viewBox="0 0 512.000000 512.000000"
 preserveAspectRatio="xMidYMid meet">
<metadata>
Created by potrace 1.11, written by Peter Selinger 2001-2013
</metadata>
<g transform="translate(0.000000,512.000000) scale(0.100000,-0.100000)"
fill="#000000" stroke="none">
<path d="M1135 5095 c-14 -13 -25 -36 -25 -50 0 -14 45 -205 100 -425 55 -220
100 -406 100 -413 0 -8 -23 -43 -52 -78 -129 -161 -238 -358 -304 -554 -20
-60 -40 -113 -43 -117 -4 -5 -38 90 -76 210 -75 234 -91 262 -146 262 -44 0
-84 -45 -140 -161 -56 -113 -94 -229 -115 -353 -24 -133 -15 -358 19 -486 54
-205 158 -391 299 -532 l78 -78 0 -425 c0 -349 3 -432 15 -460 28 -68 115 -70
147 -5 16 31 18 73 18 403 l0 367 55 -36 55 -37 0 -434 c0 -477 0 -481 60
-501 35 -13 56 -8 88 21 l22 20 0 389 c0 213 3 388 8 388 4 -1 34 -20 66 -43
l60 -42 125 -527 c104 -435 130 -532 149 -550 22 -22 29 -23 274 -28 l251 -5
34 -130 c66 -253 199 -613 245 -662 29 -31 87 -31 116 0 46 49 179 409 245
662 l34 130 252 5 253 5 22 26 c16 19 34 74 61 185 21 88 77 323 125 524 l87
365 59 42 c32 23 62 42 67 43 4 0 7 -175 7 -388 l0 -389 23 -20 c31 -29 52
-34 87 -21 60 20 60 24 60 501 l0 434 55 37 55 36 0 -367 c0 -330 2 -372 18
-403 32 -65 119 -63 147 5 12 28 15 110 15 459 l0 424 78 80 c142 143 245 327
299 532 34 128 43 353 19 486 -21 124 -59 240 -115 353 -56 116 -96 161 -140
161 -55 0 -71 -28 -146 -262 -38 -120 -72 -215 -76 -210 -3 4 -23 57 -43 117
-66 196 -175 393 -304 554 -29 35 -52 70 -52 78 0 7 45 193 100 413 55 220
100 411 100 425 0 14 -11 37 -25 50 -34 35 -84 33 -127 -3 -18 -16 -150 -129
-293 -253 -143 -124 -266 -229 -273 -233 -7 -4 -57 10 -116 33 -139 54 -267
88 -404 106 -62 8 -114 15 -116 15 -2 0 -8 18 -15 40 -28 94 -134 94 -162 0
-7 -22 -13 -40 -15 -40 -2 0 -54 -7 -116 -15 -138 -18 -271 -53 -402 -105 -54
-22 -102 -40 -107 -40 -5 0 -77 60 -161 133 -449 390 -445 387 -483 387 -25 0
-44 -8 -60 -25z m555 -599 c147 -126 177 -162 186 -223 12 -84 -39 -178 -113
-209 -80 -34 -194 -3 -238 65 -16 24 -48 133 -99 338 -42 166 -76 308 -76 314
0 6 48 -32 108 -83 59 -52 163 -142 232 -202z m2005 -27 c-84 -334 -96 -363
-167 -398 -84 -40 -177 -24 -235 42 -58 66 -68 164 -24 231 22 33 495 446 499
436 1 -4 -31 -144 -73 -311z m-1225 -69 c0 -215 7 -248 59 -269 25 -11 37 -11
62 0 52 21 59 54 59 268 l0 189 43 -5 c137 -15 268 -46 389 -90 l66 -25 -24
-36 c-63 -93 -70 -231 -17 -344 108 -227 399 -281 587 -108 l41 38 52 -71
c210 -294 323 -662 323 -1050 0 -106 4 -139 18 -167 29 -60 104 -67 139 -13
16 24 18 52 18 213 l0 185 84 255 84 255 24 -70 c78 -229 69 -510 -24 -726
-62 -144 -155 -273 -263 -363 -30 -25 -176 -125 -325 -222 -148 -97 -282 -188
-297 -203 -24 -23 -39 -79 -147 -534 -67 -279 -121 -509 -121 -512 0 -3 -84
-5 -186 -5 -172 0 -185 1 -180 18 13 42 46 310 56 452 7 95 16 157 23 159 6 2
21 14 34 27 33 33 30 78 -6 115 l-29 29 -452 0 -452 0 -29 -29 c-36 -36 -38
-78 -6 -113 13 -14 28 -27 34 -29 7 -2 16 -65 23 -159 10 -142 43 -410 56
-452 5 -17 -8 -18 -180 -18 -102 0 -186 2 -186 4 0 3 -54 234 -121 513 -74
313 -127 515 -137 527 -10 10 -154 110 -322 221 -199 132 -325 222 -364 261
-226 228 -328 560 -271 885 17 99 60 231 68 209 3 -8 43 -130 88 -270 l81
-255 -6 -160 c-6 -141 -4 -164 11 -195 21 -41 60 -58 100 -44 50 17 63 62 63
211 0 388 113 756 323 1050 l52 71 41 -38 c188 -174 479 -120 587 108 53 113
46 251 -17 345 l-24 36 81 29 c108 39 202 62 312 77 50 7 93 13 98 14 4 1 7
-85 7 -189z m2 -2964 c3 -179 4 -185 27 -210 18 -19 35 -26 61 -26 26 0 43 7
61 26 23 25 24 31 27 210 l3 184 89 0 89 0 -5 -72 c-21 -306 -51 -510 -114
-764 -40 -160 -139 -474 -150 -474 -10 0 -107 304 -145 450 -61 242 -104 517
-119 773 l-5 87 89 0 89 0 3 -184z"/>
<path d="M1494 3526 c-35 -30 -39 -86 -7 -117 12 -12 225 -99 499 -204 l479
-182 5 -471 5 -470 24 -26 c18 -19 35 -26 61 -26 26 0 43 7 61 26 l24 26 5
470 5 471 479 182 c274 105 487 192 499 204 32 31 28 87 -7 117 -15 13 -36 24
-47 24 -11 0 -217 -75 -457 -166 -240 -92 -444 -169 -453 -171 -14 -4 -17 9
-21 91 -3 83 -7 98 -28 121 -17 18 -34 25 -60 25 -26 0 -43 -7 -60 -25 -21
-23 -25 -38 -28 -121 -4 -82 -7 -95 -21 -91 -9 2 -213 79 -453 171 -240 91
-446 166 -457 166 -11 0 -32 -11 -47 -24z"/>
<path d="M1685 2905 c-31 -30 -33 -83 -6 -116 19 -23 24 -24 195 -27 l176 -3
0 -55 c0 -45 4 -59 25 -79 24 -25 65 -32 100 -19 32 13 45 59 45 163 0 92 -2
102 -26 130 l-26 31 -229 0 -230 0 -24 -25z"/>
<path d="M2926 2899 c-24 -28 -26 -38 -26 -130 0 -104 13 -150 45 -163 35 -13
76 -6 100 19 21 20 25 34 25 79 l0 55 176 3 c171 3 176 4 195 27 27 33 25 86
-6 116 l-24 25 -230 0 -229 0 -26 -31z"/>
</g>
</svg>
